<mxfile host="app.diagrams.net" modified="2024-07-03T14:35:18.570Z" agent="Mozilla/5.0 (Windows NT 10.0; Win64; x64; rv:127.0) Gecko/20100101 Firefox/127.0" etag="c1CeAylOqEDOl61NhhcB" version="24.6.4" type="device">
  <diagram id="C5RBs43oDa-KdzZeNtuy" name="Page-1">
    <mxGraphModel dx="1024" dy="559" grid="1" gridSize="10" guides="1" tooltips="1" connect="1" arrows="1" fold="1" page="1" pageScale="1" pageWidth="827" pageHeight="1169" math="0" shadow="0">
      <root>
        <mxCell id="WIyWlLk6GJQsqaUBKTNV-0" />
        <mxCell id="WIyWlLk6GJQsqaUBKTNV-1" parent="WIyWlLk6GJQsqaUBKTNV-0" />
        <mxCell id="ifCclM4Umyx-uth3Vpn5-39" value="" style="endArrow=classic;html=1;rounded=0;entryX=0.125;entryY=0;entryDx=0;entryDy=0;entryPerimeter=0;strokeColor=#333333;" edge="1" parent="WIyWlLk6GJQsqaUBKTNV-1">
          <mxGeometry width="50" height="50" relative="1" as="geometry">
            <mxPoint x="290" y="40" as="sourcePoint" />
            <mxPoint x="280" y="140" as="targetPoint" />
            <Array as="points">
              <mxPoint x="290" y="120" />
              <mxPoint x="280" y="120" />
            </Array>
          </mxGeometry>
        </mxCell>
        <mxCell id="ifCclM4Umyx-uth3Vpn5-37" value="" style="endArrow=classic;html=1;rounded=0;entryX=0.125;entryY=0;entryDx=0;entryDy=0;entryPerimeter=0;strokeColor=#333333;" edge="1" parent="WIyWlLk6GJQsqaUBKTNV-1">
          <mxGeometry width="50" height="50" relative="1" as="geometry">
            <mxPoint x="250" y="40" as="sourcePoint" />
            <mxPoint x="240" y="140" as="targetPoint" />
            <Array as="points">
              <mxPoint x="250" y="120" />
              <mxPoint x="240" y="120" />
            </Array>
          </mxGeometry>
        </mxCell>
        <mxCell id="ifCclM4Umyx-uth3Vpn5-35" value="" style="endArrow=classic;html=1;rounded=0;entryX=0.125;entryY=0;entryDx=0;entryDy=0;entryPerimeter=0;strokeColor=#333333;" edge="1" parent="WIyWlLk6GJQsqaUBKTNV-1">
          <mxGeometry width="50" height="50" relative="1" as="geometry">
            <mxPoint x="210" y="40" as="sourcePoint" />
            <mxPoint x="200" y="140" as="targetPoint" />
            <Array as="points">
              <mxPoint x="210" y="120" />
              <mxPoint x="200" y="120" />
            </Array>
          </mxGeometry>
        </mxCell>
        <mxCell id="ifCclM4Umyx-uth3Vpn5-31" value="" style="endArrow=classic;html=1;rounded=0;entryX=0.125;entryY=0;entryDx=0;entryDy=0;entryPerimeter=0;strokeColor=#333333;" edge="1" parent="WIyWlLk6GJQsqaUBKTNV-1" target="ifCclM4Umyx-uth3Vpn5-26">
          <mxGeometry width="50" height="50" relative="1" as="geometry">
            <mxPoint x="170" y="40" as="sourcePoint" />
            <mxPoint x="160" y="120" as="targetPoint" />
            <Array as="points">
              <mxPoint x="170" y="120" />
              <mxPoint x="160" y="120" />
            </Array>
          </mxGeometry>
        </mxCell>
        <mxCell id="ifCclM4Umyx-uth3Vpn5-1" value="" style="rounded=0;whiteSpace=wrap;html=1;fillColor=#dae8fc;strokeColor=#6c8ebf;" vertex="1" parent="WIyWlLk6GJQsqaUBKTNV-1">
          <mxGeometry x="140" y="40" width="160" height="20" as="geometry" />
        </mxCell>
        <mxCell id="ifCclM4Umyx-uth3Vpn5-4" value="" style="endArrow=classic;html=1;rounded=0;entryX=0;entryY=0.5;entryDx=0;entryDy=0;strokeColor=#333333;" edge="1" parent="WIyWlLk6GJQsqaUBKTNV-1" target="ifCclM4Umyx-uth3Vpn5-1">
          <mxGeometry width="50" height="50" relative="1" as="geometry">
            <mxPoint x="30" y="50" as="sourcePoint" />
            <mxPoint x="90" y="70" as="targetPoint" />
          </mxGeometry>
        </mxCell>
        <mxCell id="ifCclM4Umyx-uth3Vpn5-5" value="load [x0]" style="edgeLabel;html=1;align=center;verticalAlign=middle;resizable=0;points=[];" vertex="1" connectable="0" parent="ifCclM4Umyx-uth3Vpn5-4">
          <mxGeometry x="-0.35" relative="1" as="geometry">
            <mxPoint x="14" y="-10" as="offset" />
          </mxGeometry>
        </mxCell>
        <mxCell id="ifCclM4Umyx-uth3Vpn5-6" value="" style="endArrow=none;html=1;rounded=0;entryX=0.25;entryY=0;entryDx=0;entryDy=0;exitX=0.25;exitY=1;exitDx=0;exitDy=0;fillColor=#dae8fc;strokeColor=#6c8ebf;" edge="1" parent="WIyWlLk6GJQsqaUBKTNV-1" source="ifCclM4Umyx-uth3Vpn5-1" target="ifCclM4Umyx-uth3Vpn5-1">
          <mxGeometry width="50" height="50" relative="1" as="geometry">
            <mxPoint x="180" y="140" as="sourcePoint" />
            <mxPoint x="230" y="90" as="targetPoint" />
          </mxGeometry>
        </mxCell>
        <mxCell id="ifCclM4Umyx-uth3Vpn5-7" value="" style="endArrow=none;html=1;rounded=0;entryX=0.25;entryY=0;entryDx=0;entryDy=0;exitX=0.25;exitY=1;exitDx=0;exitDy=0;fillColor=#dae8fc;strokeColor=#6c8ebf;" edge="1" parent="WIyWlLk6GJQsqaUBKTNV-1">
          <mxGeometry width="50" height="50" relative="1" as="geometry">
            <mxPoint x="219.86" y="60" as="sourcePoint" />
            <mxPoint x="219.86" y="40" as="targetPoint" />
          </mxGeometry>
        </mxCell>
        <mxCell id="ifCclM4Umyx-uth3Vpn5-8" value="" style="endArrow=none;html=1;rounded=0;entryX=0.25;entryY=0;entryDx=0;entryDy=0;exitX=0.25;exitY=1;exitDx=0;exitDy=0;fillColor=#dae8fc;strokeColor=#6c8ebf;" edge="1" parent="WIyWlLk6GJQsqaUBKTNV-1">
          <mxGeometry width="50" height="50" relative="1" as="geometry">
            <mxPoint x="260" y="60" as="sourcePoint" />
            <mxPoint x="260" y="40" as="targetPoint" />
          </mxGeometry>
        </mxCell>
        <mxCell id="ifCclM4Umyx-uth3Vpn5-9" value="v0.4s" style="text;html=1;align=center;verticalAlign=middle;whiteSpace=wrap;rounded=0;" vertex="1" parent="WIyWlLk6GJQsqaUBKTNV-1">
          <mxGeometry x="300" y="40" width="40" height="20" as="geometry" />
        </mxCell>
        <mxCell id="ifCclM4Umyx-uth3Vpn5-17" value="" style="rounded=0;whiteSpace=wrap;html=1;fillColor=#dae8fc;strokeColor=#6c8ebf;" vertex="1" parent="WIyWlLk6GJQsqaUBKTNV-1">
          <mxGeometry x="140" y="80" width="160" height="20" as="geometry" />
        </mxCell>
        <mxCell id="ifCclM4Umyx-uth3Vpn5-18" value="" style="endArrow=classic;html=1;rounded=0;entryX=0;entryY=0.5;entryDx=0;entryDy=0;strokeColor=#333333;" edge="1" parent="WIyWlLk6GJQsqaUBKTNV-1" target="ifCclM4Umyx-uth3Vpn5-17">
          <mxGeometry width="50" height="50" relative="1" as="geometry">
            <mxPoint x="30" y="90" as="sourcePoint" />
            <mxPoint x="240" y="20" as="targetPoint" />
          </mxGeometry>
        </mxCell>
        <mxCell id="ifCclM4Umyx-uth3Vpn5-19" value="load [x1]" style="edgeLabel;html=1;align=center;verticalAlign=middle;resizable=0;points=[];" vertex="1" connectable="0" parent="ifCclM4Umyx-uth3Vpn5-18">
          <mxGeometry x="-0.35" relative="1" as="geometry">
            <mxPoint x="14" y="-10" as="offset" />
          </mxGeometry>
        </mxCell>
        <mxCell id="ifCclM4Umyx-uth3Vpn5-20" value="" style="endArrow=none;html=1;rounded=0;entryX=0.25;entryY=0;entryDx=0;entryDy=0;exitX=0.25;exitY=1;exitDx=0;exitDy=0;fillColor=#dae8fc;strokeColor=#6c8ebf;" edge="1" parent="WIyWlLk6GJQsqaUBKTNV-1" source="ifCclM4Umyx-uth3Vpn5-17" target="ifCclM4Umyx-uth3Vpn5-17">
          <mxGeometry width="50" height="50" relative="1" as="geometry">
            <mxPoint x="180" y="180" as="sourcePoint" />
            <mxPoint x="230" y="130" as="targetPoint" />
          </mxGeometry>
        </mxCell>
        <mxCell id="ifCclM4Umyx-uth3Vpn5-21" value="" style="endArrow=none;html=1;rounded=0;entryX=0.25;entryY=0;entryDx=0;entryDy=0;exitX=0.25;exitY=1;exitDx=0;exitDy=0;fillColor=#dae8fc;strokeColor=#6c8ebf;" edge="1" parent="WIyWlLk6GJQsqaUBKTNV-1">
          <mxGeometry width="50" height="50" relative="1" as="geometry">
            <mxPoint x="219.86" y="100" as="sourcePoint" />
            <mxPoint x="219.86" y="80" as="targetPoint" />
          </mxGeometry>
        </mxCell>
        <mxCell id="ifCclM4Umyx-uth3Vpn5-22" value="" style="endArrow=none;html=1;rounded=0;entryX=0.25;entryY=0;entryDx=0;entryDy=0;exitX=0.25;exitY=1;exitDx=0;exitDy=0;fillColor=#dae8fc;strokeColor=#6c8ebf;" edge="1" parent="WIyWlLk6GJQsqaUBKTNV-1">
          <mxGeometry width="50" height="50" relative="1" as="geometry">
            <mxPoint x="260" y="100" as="sourcePoint" />
            <mxPoint x="260" y="80" as="targetPoint" />
          </mxGeometry>
        </mxCell>
        <mxCell id="ifCclM4Umyx-uth3Vpn5-23" value="v3.2d" style="text;html=1;align=center;verticalAlign=middle;whiteSpace=wrap;rounded=0;fontColor=#666666;" vertex="1" parent="WIyWlLk6GJQsqaUBKTNV-1">
          <mxGeometry x="200" y="200" width="40" height="20" as="geometry" />
        </mxCell>
        <mxCell id="ifCclM4Umyx-uth3Vpn5-25" value="multiply" style="text;html=1;align=center;verticalAlign=middle;whiteSpace=wrap;rounded=0;" vertex="1" parent="WIyWlLk6GJQsqaUBKTNV-1">
          <mxGeometry x="102.5" y="166" width="45" height="16" as="geometry" />
        </mxCell>
        <mxCell id="ifCclM4Umyx-uth3Vpn5-26" value="" style="rounded=0;whiteSpace=wrap;html=1;fillColor=#dae8fc;strokeColor=#6c8ebf;" vertex="1" parent="WIyWlLk6GJQsqaUBKTNV-1">
          <mxGeometry x="140" y="140" width="160" height="20" as="geometry" />
        </mxCell>
        <mxCell id="ifCclM4Umyx-uth3Vpn5-27" value="" style="endArrow=none;html=1;rounded=0;entryX=0.25;entryY=0;entryDx=0;entryDy=0;exitX=0.25;exitY=1;exitDx=0;exitDy=0;fillColor=#dae8fc;strokeColor=#6c8ebf;" edge="1" parent="WIyWlLk6GJQsqaUBKTNV-1" source="ifCclM4Umyx-uth3Vpn5-26" target="ifCclM4Umyx-uth3Vpn5-26">
          <mxGeometry width="50" height="50" relative="1" as="geometry">
            <mxPoint x="180" y="240" as="sourcePoint" />
            <mxPoint x="230" y="190" as="targetPoint" />
          </mxGeometry>
        </mxCell>
        <mxCell id="ifCclM4Umyx-uth3Vpn5-28" value="" style="endArrow=none;html=1;rounded=0;entryX=0.25;entryY=0;entryDx=0;entryDy=0;exitX=0.25;exitY=1;exitDx=0;exitDy=0;fillColor=#dae8fc;strokeColor=#6c8ebf;" edge="1" parent="WIyWlLk6GJQsqaUBKTNV-1">
          <mxGeometry width="50" height="50" relative="1" as="geometry">
            <mxPoint x="219.86" y="160" as="sourcePoint" />
            <mxPoint x="219.86" y="140" as="targetPoint" />
          </mxGeometry>
        </mxCell>
        <mxCell id="ifCclM4Umyx-uth3Vpn5-29" value="" style="endArrow=none;html=1;rounded=0;entryX=0.25;entryY=0;entryDx=0;entryDy=0;exitX=0.25;exitY=1;exitDx=0;exitDy=0;fillColor=#dae8fc;strokeColor=#6c8ebf;" edge="1" parent="WIyWlLk6GJQsqaUBKTNV-1">
          <mxGeometry width="50" height="50" relative="1" as="geometry">
            <mxPoint x="260" y="160" as="sourcePoint" />
            <mxPoint x="260" y="140" as="targetPoint" />
          </mxGeometry>
        </mxCell>
        <mxCell id="ifCclM4Umyx-uth3Vpn5-32" value="" style="endArrow=none;html=1;rounded=0;entryX=0.063;entryY=1;entryDx=0;entryDy=0;entryPerimeter=0;strokeColor=#333333;" edge="1" parent="WIyWlLk6GJQsqaUBKTNV-1" target="ifCclM4Umyx-uth3Vpn5-17">
          <mxGeometry width="50" height="50" relative="1" as="geometry">
            <mxPoint x="160" y="120" as="sourcePoint" />
            <mxPoint x="150" y="110" as="targetPoint" />
            <Array as="points">
              <mxPoint x="150" y="120" />
            </Array>
          </mxGeometry>
        </mxCell>
        <mxCell id="ifCclM4Umyx-uth3Vpn5-33" value="+" style="text;html=1;align=center;verticalAlign=middle;whiteSpace=wrap;rounded=0;" vertex="1" parent="WIyWlLk6GJQsqaUBKTNV-1">
          <mxGeometry x="150" y="108.5" width="20" height="11" as="geometry" />
        </mxCell>
        <mxCell id="ifCclM4Umyx-uth3Vpn5-36" value="" style="endArrow=none;html=1;rounded=0;entryX=0.063;entryY=1;entryDx=0;entryDy=0;entryPerimeter=0;strokeColor=#333333;" edge="1" parent="WIyWlLk6GJQsqaUBKTNV-1">
          <mxGeometry width="50" height="50" relative="1" as="geometry">
            <mxPoint x="200" y="120" as="sourcePoint" />
            <mxPoint x="190" y="100" as="targetPoint" />
            <Array as="points">
              <mxPoint x="190" y="120" />
            </Array>
          </mxGeometry>
        </mxCell>
        <mxCell id="ifCclM4Umyx-uth3Vpn5-38" value="" style="endArrow=none;html=1;rounded=0;entryX=0.063;entryY=1;entryDx=0;entryDy=0;entryPerimeter=0;strokeColor=#333333;" edge="1" parent="WIyWlLk6GJQsqaUBKTNV-1">
          <mxGeometry width="50" height="50" relative="1" as="geometry">
            <mxPoint x="240" y="120" as="sourcePoint" />
            <mxPoint x="230" y="100" as="targetPoint" />
            <Array as="points">
              <mxPoint x="230" y="120" />
            </Array>
          </mxGeometry>
        </mxCell>
        <mxCell id="ifCclM4Umyx-uth3Vpn5-40" value="" style="endArrow=none;html=1;rounded=0;entryX=0.063;entryY=1;entryDx=0;entryDy=0;entryPerimeter=0;strokeColor=#333333;" edge="1" parent="WIyWlLk6GJQsqaUBKTNV-1">
          <mxGeometry width="50" height="50" relative="1" as="geometry">
            <mxPoint x="280" y="120" as="sourcePoint" />
            <mxPoint x="270" y="100" as="targetPoint" />
            <Array as="points">
              <mxPoint x="270" y="120" />
            </Array>
          </mxGeometry>
        </mxCell>
        <mxCell id="ifCclM4Umyx-uth3Vpn5-41" value="v1.4s" style="text;html=1;align=center;verticalAlign=middle;whiteSpace=wrap;rounded=0;" vertex="1" parent="WIyWlLk6GJQsqaUBKTNV-1">
          <mxGeometry x="300" y="80" width="40" height="20" as="geometry" />
        </mxCell>
        <mxCell id="ifCclM4Umyx-uth3Vpn5-42" value="+" style="text;html=1;align=center;verticalAlign=middle;whiteSpace=wrap;rounded=0;" vertex="1" parent="WIyWlLk6GJQsqaUBKTNV-1">
          <mxGeometry x="190" y="108.5" width="20" height="11" as="geometry" />
        </mxCell>
        <mxCell id="ifCclM4Umyx-uth3Vpn5-43" value="+" style="text;html=1;align=center;verticalAlign=middle;whiteSpace=wrap;rounded=0;" vertex="1" parent="WIyWlLk6GJQsqaUBKTNV-1">
          <mxGeometry x="230" y="108.5" width="20" height="11" as="geometry" />
        </mxCell>
        <mxCell id="ifCclM4Umyx-uth3Vpn5-44" value="+" style="text;html=1;align=center;verticalAlign=middle;whiteSpace=wrap;rounded=0;" vertex="1" parent="WIyWlLk6GJQsqaUBKTNV-1">
          <mxGeometry x="270" y="108.5" width="20" height="11" as="geometry" />
        </mxCell>
        <mxCell id="ifCclM4Umyx-uth3Vpn5-46" value="" style="rounded=0;whiteSpace=wrap;html=1;fillColor=#f8cecc;strokeColor=#b85450;" vertex="1" parent="WIyWlLk6GJQsqaUBKTNV-1">
          <mxGeometry x="40" y="200" width="160" height="20" as="geometry" />
        </mxCell>
        <mxCell id="ifCclM4Umyx-uth3Vpn5-48" value="" style="endArrow=none;html=1;rounded=0;entryX=0.25;entryY=0;entryDx=0;entryDy=0;exitX=0.25;exitY=1;exitDx=0;exitDy=0;fillColor=#f8cecc;strokeColor=#b85450;" edge="1" parent="WIyWlLk6GJQsqaUBKTNV-1">
          <mxGeometry width="50" height="50" relative="1" as="geometry">
            <mxPoint x="119.86000000000001" y="220" as="sourcePoint" />
            <mxPoint x="119.86000000000001" y="200" as="targetPoint" />
          </mxGeometry>
        </mxCell>
        <mxCell id="ifCclM4Umyx-uth3Vpn5-50" value="" style="rounded=0;whiteSpace=wrap;html=1;fillColor=#f8cecc;strokeColor=#b85450;" vertex="1" parent="WIyWlLk6GJQsqaUBKTNV-1">
          <mxGeometry x="240" y="200" width="160" height="20" as="geometry" />
        </mxCell>
        <mxCell id="ifCclM4Umyx-uth3Vpn5-51" value="" style="endArrow=none;html=1;rounded=0;entryX=0.25;entryY=0;entryDx=0;entryDy=0;exitX=0.25;exitY=1;exitDx=0;exitDy=0;fillColor=#f8cecc;strokeColor=#b85450;" edge="1" parent="WIyWlLk6GJQsqaUBKTNV-1">
          <mxGeometry width="50" height="50" relative="1" as="geometry">
            <mxPoint x="320" y="220" as="sourcePoint" />
            <mxPoint x="320" y="200" as="targetPoint" />
          </mxGeometry>
        </mxCell>
        <mxCell id="ifCclM4Umyx-uth3Vpn5-52" value="v2.4s" style="text;html=1;align=center;verticalAlign=middle;whiteSpace=wrap;rounded=0;" vertex="1" parent="WIyWlLk6GJQsqaUBKTNV-1">
          <mxGeometry x="300" y="140" width="40" height="20" as="geometry" />
        </mxCell>
        <mxCell id="ifCclM4Umyx-uth3Vpn5-53" value="v4.2d" style="text;html=1;align=center;verticalAlign=middle;whiteSpace=wrap;rounded=0;" vertex="1" parent="WIyWlLk6GJQsqaUBKTNV-1">
          <mxGeometry x="400" y="200" width="40" height="20" as="geometry" />
        </mxCell>
        <mxCell id="ifCclM4Umyx-uth3Vpn5-54" value="" style="endArrow=classic;html=1;rounded=0;entryX=0.25;entryY=0;entryDx=0;entryDy=0;strokeColor=#333333;" edge="1" parent="WIyWlLk6GJQsqaUBKTNV-1" target="ifCclM4Umyx-uth3Vpn5-46">
          <mxGeometry width="50" height="50" relative="1" as="geometry">
            <mxPoint x="160" y="180" as="sourcePoint" />
            <mxPoint x="90" y="200.00000000000006" as="targetPoint" />
            <Array as="points">
              <mxPoint x="160" y="186" />
              <mxPoint x="80" y="186" />
            </Array>
          </mxGeometry>
        </mxCell>
        <mxCell id="ifCclM4Umyx-uth3Vpn5-55" value="" style="endArrow=none;html=1;rounded=0;exitX=0.063;exitY=1;exitDx=0;exitDy=0;exitPerimeter=0;strokeColor=#333333;" edge="1" parent="WIyWlLk6GJQsqaUBKTNV-1" source="ifCclM4Umyx-uth3Vpn5-26">
          <mxGeometry width="50" height="50" relative="1" as="geometry">
            <mxPoint x="170" y="180" as="sourcePoint" />
            <mxPoint x="150" y="180" as="targetPoint" />
          </mxGeometry>
        </mxCell>
        <mxCell id="ifCclM4Umyx-uth3Vpn5-56" value="" style="endArrow=none;html=1;rounded=0;strokeColor=#333333;" edge="1" parent="WIyWlLk6GJQsqaUBKTNV-1">
          <mxGeometry width="50" height="50" relative="1" as="geometry">
            <mxPoint x="170" y="160" as="sourcePoint" />
            <mxPoint x="170" y="180" as="targetPoint" />
          </mxGeometry>
        </mxCell>
        <mxCell id="ifCclM4Umyx-uth3Vpn5-57" value="" style="endArrow=classic;html=1;rounded=0;strokeColor=#333333;" edge="1" parent="WIyWlLk6GJQsqaUBKTNV-1">
          <mxGeometry width="50" height="50" relative="1" as="geometry">
            <mxPoint x="200" y="180" as="sourcePoint" />
            <mxPoint x="160" y="200" as="targetPoint" />
            <Array as="points">
              <mxPoint x="200" y="190" />
              <mxPoint x="160" y="190" />
            </Array>
          </mxGeometry>
        </mxCell>
        <mxCell id="ifCclM4Umyx-uth3Vpn5-58" value="" style="endArrow=none;html=1;rounded=0;strokeColor=#333333;" edge="1" parent="WIyWlLk6GJQsqaUBKTNV-1">
          <mxGeometry width="50" height="50" relative="1" as="geometry">
            <mxPoint x="210" y="160" as="sourcePoint" />
            <mxPoint x="190" y="160" as="targetPoint" />
            <Array as="points">
              <mxPoint x="210" y="180" />
              <mxPoint x="190" y="180" />
            </Array>
          </mxGeometry>
        </mxCell>
        <mxCell id="ifCclM4Umyx-uth3Vpn5-60" value="×" style="text;html=1;align=center;verticalAlign=middle;whiteSpace=wrap;rounded=0;" vertex="1" parent="WIyWlLk6GJQsqaUBKTNV-1">
          <mxGeometry x="195" y="169" width="10" height="10" as="geometry" />
        </mxCell>
        <mxCell id="ifCclM4Umyx-uth3Vpn5-61" value="" style="endArrow=none;html=1;rounded=0;" edge="1" parent="WIyWlLk6GJQsqaUBKTNV-1">
          <mxGeometry width="50" height="50" relative="1" as="geometry">
            <mxPoint x="170" y="180" as="sourcePoint" />
            <mxPoint x="150" y="180" as="targetPoint" />
          </mxGeometry>
        </mxCell>
        <mxCell id="ifCclM4Umyx-uth3Vpn5-62" value="×" style="text;html=1;align=center;verticalAlign=middle;whiteSpace=wrap;rounded=0;" vertex="1" parent="WIyWlLk6GJQsqaUBKTNV-1">
          <mxGeometry x="155" y="169" width="10" height="10" as="geometry" />
        </mxCell>
        <mxCell id="ifCclM4Umyx-uth3Vpn5-66" value="add" style="text;html=1;align=center;verticalAlign=middle;whiteSpace=wrap;rounded=0;strokeColor=none;" vertex="1" parent="WIyWlLk6GJQsqaUBKTNV-1">
          <mxGeometry x="117.5" y="106" width="30" height="16" as="geometry" />
        </mxCell>
        <mxCell id="ifCclM4Umyx-uth3Vpn5-67" value="" style="endArrow=none;html=1;rounded=0;strokeColor=#333333;" edge="1" parent="WIyWlLk6GJQsqaUBKTNV-1">
          <mxGeometry width="50" height="50" relative="1" as="geometry">
            <mxPoint x="250" y="160" as="sourcePoint" />
            <mxPoint x="230" y="160" as="targetPoint" />
            <Array as="points">
              <mxPoint x="250" y="180" />
              <mxPoint x="230" y="180" />
            </Array>
          </mxGeometry>
        </mxCell>
        <mxCell id="ifCclM4Umyx-uth3Vpn5-68" value="×" style="text;html=1;align=center;verticalAlign=middle;whiteSpace=wrap;rounded=0;" vertex="1" parent="WIyWlLk6GJQsqaUBKTNV-1">
          <mxGeometry x="235" y="169" width="10" height="10" as="geometry" />
        </mxCell>
        <mxCell id="ifCclM4Umyx-uth3Vpn5-71" value="" style="endArrow=none;html=1;rounded=0;strokeColor=#333333;" edge="1" parent="WIyWlLk6GJQsqaUBKTNV-1">
          <mxGeometry width="50" height="50" relative="1" as="geometry">
            <mxPoint x="290" y="160" as="sourcePoint" />
            <mxPoint x="270" y="160" as="targetPoint" />
            <Array as="points">
              <mxPoint x="290" y="180" />
              <mxPoint x="270" y="180" />
            </Array>
          </mxGeometry>
        </mxCell>
        <mxCell id="ifCclM4Umyx-uth3Vpn5-73" value="" style="endArrow=classic;html=1;rounded=0;entryX=0.25;entryY=0;entryDx=0;entryDy=0;strokeColor=#333333;" edge="1" parent="WIyWlLk6GJQsqaUBKTNV-1">
          <mxGeometry width="50" height="50" relative="1" as="geometry">
            <mxPoint x="280" y="180" as="sourcePoint" />
            <mxPoint x="360" y="200" as="targetPoint" />
            <Array as="points">
              <mxPoint x="280" y="186" />
              <mxPoint x="360" y="186" />
            </Array>
          </mxGeometry>
        </mxCell>
        <mxCell id="ifCclM4Umyx-uth3Vpn5-74" value="×" style="text;html=1;align=center;verticalAlign=middle;whiteSpace=wrap;rounded=0;" vertex="1" parent="WIyWlLk6GJQsqaUBKTNV-1">
          <mxGeometry x="275" y="169" width="10" height="10" as="geometry" />
        </mxCell>
        <mxCell id="ifCclM4Umyx-uth3Vpn5-75" value="" style="endArrow=classic;html=1;rounded=0;entryX=0.25;entryY=0;entryDx=0;entryDy=0;strokeColor=#333333;" edge="1" parent="WIyWlLk6GJQsqaUBKTNV-1" target="ifCclM4Umyx-uth3Vpn5-50">
          <mxGeometry width="50" height="50" relative="1" as="geometry">
            <mxPoint x="240" y="180" as="sourcePoint" />
            <mxPoint x="170" y="210" as="targetPoint" />
            <Array as="points">
              <mxPoint x="240" y="190" />
              <mxPoint x="280" y="190" />
            </Array>
          </mxGeometry>
        </mxCell>
        <mxCell id="ifCclM4Umyx-uth3Vpn5-76" value="multiply (2)" style="text;html=1;align=center;verticalAlign=middle;whiteSpace=wrap;rounded=0;" vertex="1" parent="WIyWlLk6GJQsqaUBKTNV-1">
          <mxGeometry x="290" y="166" width="65" height="16" as="geometry" />
        </mxCell>
        <mxCell id="ifCclM4Umyx-uth3Vpn5-79" value="" style="endArrow=none;dashed=1;html=1;rounded=0;fillColor=#f8cecc;strokeColor=#b85450;opacity=50;" edge="1" parent="WIyWlLk6GJQsqaUBKTNV-1">
          <mxGeometry width="50" height="50" relative="1" as="geometry">
            <mxPoint x="80" y="220" as="sourcePoint" />
            <mxPoint x="80" y="200" as="targetPoint" />
          </mxGeometry>
        </mxCell>
        <mxCell id="ifCclM4Umyx-uth3Vpn5-80" value="" style="endArrow=none;dashed=1;html=1;rounded=0;fillColor=#f8cecc;strokeColor=#b85450;opacity=50;" edge="1" parent="WIyWlLk6GJQsqaUBKTNV-1">
          <mxGeometry width="50" height="50" relative="1" as="geometry">
            <mxPoint x="159.81" y="220" as="sourcePoint" />
            <mxPoint x="159.81" y="200" as="targetPoint" />
          </mxGeometry>
        </mxCell>
        <mxCell id="ifCclM4Umyx-uth3Vpn5-81" value="" style="endArrow=none;dashed=1;html=1;rounded=0;fillColor=#f8cecc;strokeColor=#b85450;opacity=50;" edge="1" parent="WIyWlLk6GJQsqaUBKTNV-1">
          <mxGeometry width="50" height="50" relative="1" as="geometry">
            <mxPoint x="279.81" y="220" as="sourcePoint" />
            <mxPoint x="279.81" y="200" as="targetPoint" />
          </mxGeometry>
        </mxCell>
        <mxCell id="ifCclM4Umyx-uth3Vpn5-82" value="" style="endArrow=none;dashed=1;html=1;rounded=0;fillColor=#f8cecc;strokeColor=#b85450;opacity=50;" edge="1" parent="WIyWlLk6GJQsqaUBKTNV-1">
          <mxGeometry width="50" height="50" relative="1" as="geometry">
            <mxPoint x="360" y="220" as="sourcePoint" />
            <mxPoint x="360" y="200" as="targetPoint" />
          </mxGeometry>
        </mxCell>
        <mxCell id="ifCclM4Umyx-uth3Vpn5-84" value="" style="rounded=0;whiteSpace=wrap;html=1;fillColor=#dae8fc;strokeColor=#6c8ebf;" vertex="1" parent="WIyWlLk6GJQsqaUBKTNV-1">
          <mxGeometry x="140" y="260" width="160" height="20" as="geometry" />
        </mxCell>
        <mxCell id="ifCclM4Umyx-uth3Vpn5-85" value="" style="endArrow=none;html=1;rounded=0;entryX=0.25;entryY=0;entryDx=0;entryDy=0;exitX=0.25;exitY=1;exitDx=0;exitDy=0;fillColor=#dae8fc;strokeColor=#6c8ebf;" edge="1" parent="WIyWlLk6GJQsqaUBKTNV-1" source="ifCclM4Umyx-uth3Vpn5-84" target="ifCclM4Umyx-uth3Vpn5-84">
          <mxGeometry width="50" height="50" relative="1" as="geometry">
            <mxPoint x="180" y="360" as="sourcePoint" />
            <mxPoint x="230" y="310" as="targetPoint" />
          </mxGeometry>
        </mxCell>
        <mxCell id="ifCclM4Umyx-uth3Vpn5-86" value="" style="endArrow=none;html=1;rounded=0;entryX=0.25;entryY=0;entryDx=0;entryDy=0;exitX=0.25;exitY=1;exitDx=0;exitDy=0;fillColor=#dae8fc;strokeColor=#6c8ebf;" edge="1" parent="WIyWlLk6GJQsqaUBKTNV-1">
          <mxGeometry width="50" height="50" relative="1" as="geometry">
            <mxPoint x="219.86" y="280" as="sourcePoint" />
            <mxPoint x="219.86" y="260" as="targetPoint" />
          </mxGeometry>
        </mxCell>
        <mxCell id="ifCclM4Umyx-uth3Vpn5-87" value="" style="endArrow=none;html=1;rounded=0;entryX=0.25;entryY=0;entryDx=0;entryDy=0;exitX=0.25;exitY=1;exitDx=0;exitDy=0;fillColor=#dae8fc;strokeColor=#6c8ebf;" edge="1" parent="WIyWlLk6GJQsqaUBKTNV-1">
          <mxGeometry width="50" height="50" relative="1" as="geometry">
            <mxPoint x="260" y="280" as="sourcePoint" />
            <mxPoint x="260" y="260" as="targetPoint" />
          </mxGeometry>
        </mxCell>
        <mxCell id="ifCclM4Umyx-uth3Vpn5-89" value="" style="endArrow=classic;html=1;rounded=0;exitX=0.375;exitY=1;exitDx=0;exitDy=0;exitPerimeter=0;entryX=0.125;entryY=0;entryDx=0;entryDy=0;entryPerimeter=0;strokeColor=#333333;" edge="1" parent="WIyWlLk6GJQsqaUBKTNV-1" source="ifCclM4Umyx-uth3Vpn5-46" target="ifCclM4Umyx-uth3Vpn5-84">
          <mxGeometry width="50" height="50" relative="1" as="geometry">
            <mxPoint x="60" y="300" as="sourcePoint" />
            <mxPoint x="160" y="250" as="targetPoint" />
            <Array as="points">
              <mxPoint x="100" y="240" />
              <mxPoint x="160" y="240" />
            </Array>
          </mxGeometry>
        </mxCell>
        <mxCell id="ifCclM4Umyx-uth3Vpn5-90" value="" style="endArrow=classic;html=1;rounded=0;exitX=0.875;exitY=1;exitDx=0;exitDy=0;exitPerimeter=0;entryX=0.375;entryY=0;entryDx=0;entryDy=0;entryPerimeter=0;strokeColor=#333333;" edge="1" parent="WIyWlLk6GJQsqaUBKTNV-1" source="ifCclM4Umyx-uth3Vpn5-46" target="ifCclM4Umyx-uth3Vpn5-84">
          <mxGeometry width="50" height="50" relative="1" as="geometry">
            <mxPoint x="180" y="350" as="sourcePoint" />
            <mxPoint x="200" y="250" as="targetPoint" />
            <Array as="points">
              <mxPoint x="180" y="240" />
              <mxPoint x="200" y="240" />
            </Array>
          </mxGeometry>
        </mxCell>
        <mxCell id="ifCclM4Umyx-uth3Vpn5-91" value="" style="endArrow=classic;html=1;rounded=0;exitX=0.375;exitY=1;exitDx=0;exitDy=0;exitPerimeter=0;entryX=0.625;entryY=0;entryDx=0;entryDy=0;entryPerimeter=0;strokeColor=#333333;" edge="1" parent="WIyWlLk6GJQsqaUBKTNV-1" source="ifCclM4Umyx-uth3Vpn5-50" target="ifCclM4Umyx-uth3Vpn5-84">
          <mxGeometry width="50" height="50" relative="1" as="geometry">
            <mxPoint x="320" y="230" as="sourcePoint" />
            <mxPoint x="340" y="270" as="targetPoint" />
            <Array as="points">
              <mxPoint x="300" y="240" />
              <mxPoint x="240" y="240" />
            </Array>
          </mxGeometry>
        </mxCell>
        <mxCell id="ifCclM4Umyx-uth3Vpn5-92" value="" style="endArrow=classic;html=1;rounded=0;exitX=0.375;exitY=1;exitDx=0;exitDy=0;exitPerimeter=0;entryX=0.875;entryY=0;entryDx=0;entryDy=0;entryPerimeter=0;strokeColor=#333333;" edge="1" parent="WIyWlLk6GJQsqaUBKTNV-1" target="ifCclM4Umyx-uth3Vpn5-84">
          <mxGeometry width="50" height="50" relative="1" as="geometry">
            <mxPoint x="380" y="220" as="sourcePoint" />
            <mxPoint x="320" y="260" as="targetPoint" />
            <Array as="points">
              <mxPoint x="380" y="250" />
              <mxPoint x="280" y="250" />
            </Array>
          </mxGeometry>
        </mxCell>
        <mxCell id="ifCclM4Umyx-uth3Vpn5-93" value="unzip (2)" style="text;html=1;align=center;verticalAlign=middle;whiteSpace=wrap;rounded=0;" vertex="1" parent="WIyWlLk6GJQsqaUBKTNV-1">
          <mxGeometry x="40" y="230" width="60" height="16" as="geometry" />
        </mxCell>
        <mxCell id="ifCclM4Umyx-uth3Vpn5-94" value="&lt;font color=&quot;#ff0000&quot;&gt;×&lt;/font&gt;" style="text;html=1;align=center;verticalAlign=middle;whiteSpace=wrap;rounded=0;" vertex="1" parent="WIyWlLk6GJQsqaUBKTNV-1">
          <mxGeometry x="50" y="212" width="20" height="20" as="geometry" />
        </mxCell>
        <mxCell id="ifCclM4Umyx-uth3Vpn5-95" value="&lt;font color=&quot;#ff0000&quot;&gt;×&lt;/font&gt;" style="text;html=1;align=center;verticalAlign=middle;whiteSpace=wrap;rounded=0;" vertex="1" parent="WIyWlLk6GJQsqaUBKTNV-1">
          <mxGeometry x="130" y="212" width="20" height="20" as="geometry" />
        </mxCell>
        <mxCell id="ifCclM4Umyx-uth3Vpn5-96" value="&lt;font color=&quot;#ff0000&quot;&gt;×&lt;/font&gt;" style="text;html=1;align=center;verticalAlign=middle;whiteSpace=wrap;rounded=0;" vertex="1" parent="WIyWlLk6GJQsqaUBKTNV-1">
          <mxGeometry x="250" y="212" width="20" height="20" as="geometry" />
        </mxCell>
        <mxCell id="ifCclM4Umyx-uth3Vpn5-97" value="&lt;font color=&quot;#ff0000&quot;&gt;×&lt;/font&gt;" style="text;html=1;align=center;verticalAlign=middle;whiteSpace=wrap;rounded=0;" vertex="1" parent="WIyWlLk6GJQsqaUBKTNV-1">
          <mxGeometry x="330" y="212" width="20" height="20" as="geometry" />
        </mxCell>
        <mxCell id="ifCclM4Umyx-uth3Vpn5-98" value="v5.4s" style="text;html=1;align=center;verticalAlign=middle;whiteSpace=wrap;rounded=0;" vertex="1" parent="WIyWlLk6GJQsqaUBKTNV-1">
          <mxGeometry x="300" y="260" width="40" height="20" as="geometry" />
        </mxCell>
        <mxCell id="ifCclM4Umyx-uth3Vpn5-100" value="" style="endArrow=classic;html=1;rounded=0;exitX=0;exitY=0.5;exitDx=0;exitDy=0;strokeColor=#333333;" edge="1" parent="WIyWlLk6GJQsqaUBKTNV-1" source="ifCclM4Umyx-uth3Vpn5-84">
          <mxGeometry width="50" height="50" relative="1" as="geometry">
            <mxPoint x="130" y="270" as="sourcePoint" />
            <mxPoint x="30" y="270" as="targetPoint" />
          </mxGeometry>
        </mxCell>
        <mxCell id="ifCclM4Umyx-uth3Vpn5-101" value="store [x2]" style="edgeLabel;html=1;align=center;verticalAlign=middle;resizable=0;points=[];" vertex="1" connectable="0" parent="ifCclM4Umyx-uth3Vpn5-100">
          <mxGeometry x="-0.35" relative="1" as="geometry">
            <mxPoint x="-14" y="-10" as="offset" />
          </mxGeometry>
        </mxCell>
        <mxCell id="ifCclM4Umyx-uth3Vpn5-103" value="&lt;font color=&quot;#003300&quot;&gt;memory&lt;/font&gt;" style="rounded=0;whiteSpace=wrap;html=1;rotation=90;fillColor=#d5e8d4;strokeColor=#82b366;" vertex="1" parent="WIyWlLk6GJQsqaUBKTNV-1">
          <mxGeometry x="-100.62" y="151.88" width="241.25" height="20" as="geometry" />
        </mxCell>
        <mxCell id="ifCclM4Umyx-uth3Vpn5-104" value="v0.4s" style="text;html=1;align=center;verticalAlign=middle;whiteSpace=wrap;rounded=0;fontColor=#666666;" vertex="1" parent="WIyWlLk6GJQsqaUBKTNV-1">
          <mxGeometry x="300" y="40" width="40" height="20" as="geometry" />
        </mxCell>
        <mxCell id="ifCclM4Umyx-uth3Vpn5-105" value="v1.4s" style="text;html=1;align=center;verticalAlign=middle;whiteSpace=wrap;rounded=0;fontColor=#666666;" vertex="1" parent="WIyWlLk6GJQsqaUBKTNV-1">
          <mxGeometry x="300" y="80" width="40" height="20" as="geometry" />
        </mxCell>
        <mxCell id="ifCclM4Umyx-uth3Vpn5-106" value="v2.4s" style="text;html=1;align=center;verticalAlign=middle;whiteSpace=wrap;rounded=0;fontColor=#666666;" vertex="1" parent="WIyWlLk6GJQsqaUBKTNV-1">
          <mxGeometry x="300" y="140" width="40" height="20" as="geometry" />
        </mxCell>
        <mxCell id="ifCclM4Umyx-uth3Vpn5-107" value="v4.2d" style="text;html=1;align=center;verticalAlign=middle;whiteSpace=wrap;rounded=0;fontColor=#666666;" vertex="1" parent="WIyWlLk6GJQsqaUBKTNV-1">
          <mxGeometry x="400" y="200" width="40" height="20" as="geometry" />
        </mxCell>
        <mxCell id="ifCclM4Umyx-uth3Vpn5-108" value="v5.4s" style="text;html=1;align=center;verticalAlign=middle;whiteSpace=wrap;rounded=0;fontColor=#666666;" vertex="1" parent="WIyWlLk6GJQsqaUBKTNV-1">
          <mxGeometry x="300" y="260" width="40" height="20" as="geometry" />
        </mxCell>
      </root>
    </mxGraphModel>
  </diagram>
</mxfile>
